<?xml version="1.0" encoding="UTF-8"?>
<svg id="Layer_2" data-name="Layer 2" xmlns="http://www.w3.org/2000/svg" viewBox="0 0 24.37 46.8">
  <defs>
    <style>
      .cls-1 {
        stroke-width: 0px;
      }
    </style>
  </defs>
  <g id="Layer_1-2" data-name="Layer 1">
    <g id="FkXCJh">
      <path class="cls-1" d="m14.47,0c.43.25.56.62.56,1.11-.03,1.31,0,2.62-.02,3.93,0,.31.09.42.4.46,2.72.38,5.2,1.33,7.35,3.07.17.13.32.28.47.43.28.29.37.62.16,1-.71,1.28-1.41,2.56-2.13,3.82-.31.55-.84.55-1.45.14-.86-.58-1.7-1.18-2.63-1.64-2.05-1-4.21-1.38-6.47-.81-.97.25-1.85.69-2.56,1.42-1.33,1.4-1.18,3.56.26,4.83,1.2,1.07,2.65,1.65,4.08,2.27,2.19.94,4.4,1.84,6.56,2.83,1.4.64,2.58,1.64,3.56,2.82,1.06,1.27,1.56,2.81,1.7,4.45.5,5.89-3.75,10.26-8.86,11.18-.13.02-.27.06-.45.11,0,.25,0,.51,0,.76,0,1.22,0,2.44,0,3.66,0,.66-.29.96-.94.96-1.1,0-2.19,0-3.29,0-.65,0-.97-.33-.97-1,0-1.45,0-2.89,0-4.37-.72-.16-1.43-.3-2.13-.49-2.51-.67-4.75-1.84-6.73-3.53-1.36-1.17-1.1-1.39-.3-2.41.7-.89,1.37-1.79,2.05-2.68.49-.63.93-.69,1.53-.17,1.8,1.56,3.83,2.68,6.18,3.18,1.94.41,3.79.29,5.55-.77,1.8-1.09,2.79-4.03.35-5.87-1.01-.76-2.2-1.29-3.35-1.82-2.1-.96-4.26-1.79-6.34-2.77-1.69-.8-3.16-1.94-4.32-3.45-1.38-1.81-1.86-3.89-1.66-6.1.34-3.71,2.48-6.19,5.67-7.84.99-.51,2.1-.77,3.17-1.11.26-.08.33-.17.33-.43-.01-1.31.01-2.62-.01-3.93-.01-.53.11-.95.55-1.25h4.11Z"/>
    </g>
  </g>
</svg>