<?xml version="1.0" encoding="UTF-8"?>
<svg id="Layer_2" data-name="Layer 2" xmlns="http://www.w3.org/2000/svg" viewBox="0 0 28.52 41.52">
  <defs>
    <style>
      .cls-1 {
        stroke-width: 0px;
      }
    </style>
  </defs>
  <g id="Layer_1-2" data-name="Layer 1">
    <g id="c3RaBp">
      <path class="cls-1" d="m6.41,26.1c5.1,5.1,10.2,10.2,15.36,15.36-.21.02-.35.05-.5.05-2.11,0-4.21.01-6.32-.01-.26,0-.59-.15-.78-.34-4.63-4.6-9.24-9.22-13.84-13.84-.15-.16-.31-.4-.31-.6-.02-1.96-.01-3.93-.01-5.98.24,0,.46,0,.67,0,2.76,0,5.51.04,8.27-.01,3.26-.06,5.67-1.55,7.14-4.5.06-.13.12-.26.17-.39.02-.05.02-.12.05-.25H.05v-5.21h16.3c-.11-.29-.17-.5-.26-.68-1.47-2.94-3.85-4.46-7.12-4.52-2.73-.05-5.47-.01-8.21-.01-.22,0-.44,0-.71,0V0h28.47v5.16h-9.12c1.19,1.62,1.97,3.31,2.4,5.21h6.72v5.16h-6.7c-.82,3.5-2.64,6.27-5.6,8.26-2.97,2-6.31,2.34-9.77,2.13-.01.06-.03.12-.04.18Z"/>
    </g>
  </g>
</svg>